Coordinates
version=1
nRows=12
nColumns=42
inDegrees=yes

Units are S.I. units (second, meters, Newtons, ...)
If the header above contains a line with 'inDegrees', this indicates whether rotational values are in degrees (yes) or radians (no).

endheader
time	pelvis_tilt	pelvis_list	pelvis_rotation	pelvis_tx	pelvis_ty	pelvis_tz	hip_flexion_r	hip_adduction_r	hip_rotation_r	knee_angle_r	knee_adduction_r	knee_angle_r_beta	ankle_angle_r	subtalar_angle_r	mtp_angle_r	hip_flexion_l	hip_adduction_l	hip_rotation_l	knee_angle_l	knee_adduction_l	knee_angle_l_beta	ankle_angle_l	subtalar_angle_l	mtp_angle_l	lumbar_extension	lumbar_bending	lumbar_rotation	arm_flex_r	arm_add_r	arm_rot_r	elbow_flex_r	pro_sup_r	wrist_flex_r	wrist_dev_r	arm_flex_l	arm_add_l	arm_rot_l	elbow_flex_l	pro_sup_l	wrist_flex_l	wrist_dev_l
      1.34000000	     21.77554969	      0.87866594	      3.90181340	      1.09927187	      1.00076980	     -0.02710862	    -13.01542868	      3.09229770	    -22.91661425	     25.15816876	     -8.71567573	      0.43909288	     16.71558043	     24.54195395	     -7.52724300	     -3.06018542	     -0.81508956	      2.13560908	     60.71504485	     -1.45131699	      1.05967744	      4.99116957	     -5.55530849	     -7.52724300	    -42.39192726	      1.55531242	      6.38739185	      3.93230985	    -17.18592064	     -7.15550706	     58.35351863	     90.00000001	      0.00000000	      0.00000000	      1.11954170	    -15.82241491	      2.61135978	     55.65873640	     90.00000001	      0.00000000	      0.00000000
      1.35000000	     21.51228356	      0.88280011	      3.66297452	      1.11155421	      1.00147800	     -0.02671283	    -14.09232398	      3.20143093	    -23.00822074	     23.92668023	     -8.65330535	      0.41759935	     16.92669676	     24.79819240	     -7.52680691	     -1.54018665	     -0.64705542	      1.98024882	     58.63951683	     -1.46237964	      1.02345264	      5.65731562	     -5.72854384	     -7.52680691	    -42.21736869	      1.30471556	      6.40759075	      4.38756212	    -17.21431987	     -6.99685145	     58.84011619	     90.00000001	      0.00000000	      0.00000000	      0.54555332	    -15.95101831	      2.52111017	     55.14530198	     90.00000001	      0.00000000	      0.00000000
      1.36000000	     21.64973626	      0.90466662	      3.40606589	      1.12400477	      1.00222749	     -0.02646451	    -15.63004270	      3.20505541	    -23.70968286	     22.61942182	     -8.65138596	      0.39478339	     17.16614229	     26.70494986	     -7.52561085	     -0.64581813	     -0.48803931	      1.81789593	     56.19987297	     -1.48503220	      0.98087282	      6.29017358	     -5.94226091	     -7.52561085	    -42.44314049	      1.08460300	      6.51135470	      4.57801321	    -17.69176500	     -6.15189217	     59.90945327	     90.00000001	      0.00000000	      0.00000000	      0.22738392	    -15.80498584	      2.06418237	     54.15577053	     90.00000001	      0.00000000	      0.00000000
      1.37000000	     21.42434577	      0.91460071	      3.21895915	      1.13627597	      1.00216511	     -0.02617904	    -16.74712795	      3.29444788	    -23.89736317	     21.41868648	     -8.53258324	      0.37382660	     17.52635637	     27.15170932	     -7.52513775	      0.69671299	     -0.33976356	      1.61150454	     53.76987068	     -1.62495919	      0.93846128	      6.74398367	     -6.00802857	     -7.52513775	    -42.31744882	      0.84787705	      6.42007594	      5.04469850	    -17.71018651	     -5.87006976	     60.51969518	     90.00000001	      0.00000000	      0.00000000	     -0.30807748	    -15.97396663	      1.92437836	     53.61988612	     90.00000001	      0.00000000	      0.00000000
      1.38000000	     21.52113492	      0.91171528	      2.99997005	      1.14865008	      1.00207233	     -0.02608238	    -18.20881377	      3.32293052	    -24.31743107	     20.26452854	     -8.38447559	      0.35368274	     17.86834765	     28.29711404	     -7.52447964	      1.52234749	     -0.25470028	      1.23570909	     51.02815598	     -1.82359907	      0.89060933	      7.01314240	     -5.91506637	     -7.52447964	    -42.51102914	      0.68589338	      6.45393620	      5.35111023	    -18.07155930	     -5.27274040	     61.40635644	     90.00000001	      0.00000000	      0.00000000	     -0.69489452	    -15.91775444	      1.67247787	     52.93168070	     90.00000001	      0.00000000	      0.00000000
      1.39000000	     21.41189994	      0.92267481	      2.81340613	      1.16093723	      1.00132792	     -0.02598226	    -19.37944540	      3.34348687	    -24.70168357	     19.23953852	     -8.25358102	      0.33579329	     18.29306917	     29.15816432	     -7.52392060	      2.57101736	     -0.15983760	      0.74236689	     48.26033455	     -2.14011737	      0.84230174	      7.13404640	     -5.58307037	     -7.52392060	    -42.50924714	      0.48651677	      6.41361911	      5.66952002	    -18.31387986	     -4.71935724	     62.25786033	     90.00000001	      0.00000000	      0.00000000	     -1.09825556	    -15.96280793	      1.45298361	     52.36486154	     90.00000001	      0.00000000	      0.00000000
      1.40000000	     21.41037576	      0.89665139	      2.59529374	      1.17323427	      1.00030854	     -0.02594451	    -20.60939142	      3.35798049	    -25.14660585	     18.34660541	     -8.12113146	      0.32020867	     18.76582296	     30.15070702	     -7.52328847	      3.41453312	     -0.13939321	     -0.00942347	     45.34184569	     -2.58888813	      0.79136450	      7.14964214	     -4.84374419	     -7.52328847	    -42.61625645	      0.32432319	      6.46293592	      5.95137025	    -18.69987659	     -4.03776734	     63.19807862	     90.00000001	      0.00000000	      0.00000000	     -1.45698659	    -15.92792524	      1.20233473	     51.80815117	     90.00000001	      0.00000000	      0.00000000
      1.41000000	     21.33707154	      0.79912842	      2.35685414	      1.18555493	      0.99870947	     -0.02592328	    -21.59037812	      3.36415505	    -26.03531272	     17.75022432	     -8.15730855	      0.30979986	     19.30585693	     31.91041670	     -7.52181268	      4.35835451	     -0.26794621	     -1.48917681	     42.46053911	     -3.40641443	      0.74107621	      7.54438687	     -2.55963657	     -7.52181268	    -42.64712598	      0.23039441	      6.53664371	      6.12580863	    -19.34269720	     -2.78671007	     64.42367581	     90.00000001	      0.00000000	      0.00000000	     -1.80667167	    -15.79414464	      0.71357956	     51.31927533	     90.00000001	      0.00000000	      0.00000000
      1.42000000	     21.32323297	      0.73116868	      2.13340326	      1.19777253	      0.99701783	     -0.02599948	    -22.73771437	      3.40599338	    -26.03794592	     17.07349651	     -7.90620626	      0.29798873	     19.89805141	     32.08872357	     -7.52122147	      5.08900219	     -0.34482425	     -2.41160105	     39.41053377	     -3.79663564	      0.68784357	      7.29101859	     -1.46021427	     -7.52122147	    -42.76012761	      0.10318569	      6.59370023	      6.56267927	    -19.54768341	     -2.50965251	     65.01120195	     90.00000001	      0.00000000	      0.00000000	     -2.16238685	    -15.80139936	      0.60367684	     50.93047294	     90.00000001	      0.00000000	      0.00000000
      1.43000000	     21.27946070	      0.62455724	      1.86285252	      1.20997257	      0.99498194	     -0.02604736	    -23.74859836	      3.46075585	    -26.00119053	     16.58475595	     -7.76106775	      0.28945860	     20.48866401	     32.33415984	     -7.52067536	      5.79036899	     -0.50508052	     -3.64295320	     36.34529628	     -4.24790065	      0.63434509	      7.03100269	      0.20219565	     -7.52067536	    -42.83722013	     -0.01513329	      6.69926191	      6.92609098	    -19.83952957	     -2.05493136	     65.75803089	     90.00000001	      0.00000000	      0.00000000	     -2.45453386	    -15.75955543	      0.45128983	     50.55860719	     90.00000001	      0.00000000	      0.00000000
      1.44000000	     21.28781553	      0.33532422	      1.53294008	      1.22240725	      0.99253168	     -0.02608985	    -24.68203086	      3.61749378	    -26.32473916	     16.32475892	     -7.79112375	      0.28492079	     21.06774963	     33.18515125	     -7.51904311	      6.58975886	     -1.01639496	     -6.56414312	     33.60462045	     -5.36717635	      0.58651127	      7.82066468	      5.50632630	     -7.51904311	    -42.93522205	      0.03108027	      6.96455205	      7.18969854	    -20.50108056	     -0.94171947	     66.79379894	     90.00000001	      0.00000000	      0.00000000	     -2.81897475	    -15.55437960	     -0.03714327	     50.24006896	     90.00000001	      0.00000000	      0.00000000
      1.45000000	     21.28253172	      0.10032620	      1.19064437	      1.23470237	      0.99000784	     -0.02620144	    -25.58067173	      3.70916775	    -26.17330806	     16.17418202	     -7.72274062	      0.28229273	     21.65379713	     33.38222079	     -7.51781660	      7.22298603	     -1.41377534	     -8.65944236	     30.80232888	     -5.89700720	      0.53760206	      7.66233507	      8.69381510	     -7.51781660	    -43.03891623	      0.01098084	      7.20235589	      7.56872788	    -20.89790564	     -0.39636327	     67.50930519	     90.00000001	      0.00000000	      0.00000000	     -3.10112760	    -15.40655052	     -0.29196019	     49.95517941	     90.00000001	      0.00000000	      0.00000000
